<?xml version="1.0" encoding="UTF-8"?>
<!DOCTYPE svg PUBLIC "-//W3C//DTD SVG 1.1//EN" "http://www.w3.org/Graphics/SVG/1.1/DTD/svg11.dtd">
<!-- Creator: CorelDRAW X7 -->
<svg xmlns="http://www.w3.org/2000/svg" xml:space="preserve" width="77.4736mm" height="53.3311mm" version="1.1" style="shape-rendering:geometricPrecision; text-rendering:geometricPrecision; image-rendering:optimizeQuality; fill-rule:evenodd; clip-rule:evenodd"
viewBox="0 0 7703 5303"
 xmlns:xlink="http://www.w3.org/1999/xlink">
 <defs>
  <style type="text/css">
   <![CDATA[
    .fil5 {fill:black}
    .fil1 {fill:black}
    .fil3 {fill:#CCCCCC}
    .fil2 {fill:#FFC125}
    .fil0 {fill:#FFC125}
    .fil4 {fill:white}
   ]]>
  </style>
 </defs>
 <g id="Layer_x0020_1">
  <metadata id="CorelCorpID_0Corel-Layer"/>
  <path class="fil0" d="M2787 4510l-862 0 0 -100 -657 0 369 -480 -100 -132 -964 0 -217 -274 0 -1480 -356 -447 1417 0 0 -1150 428 0 0 -110 479 0 0 -193 75 -19c203,-53 430,-77 639,-94 270,-22 543,-31 814,-31 270,0 543,9 813,31 209,17 436,41 639,94l75 19 0 193 479 0 0 110 428 0 0 1150 1417 0 -355 447 0 1480 -218 274 -964 0 -99 132 368 480 -657 0 0 100 -862 0 -1064 793 -1065 -793z"/>
  <path class="fil1" d="M3852 5179l-1032 -768 -795 0 0 -100 -555 0 292 -380 -175 -232 -966 0 -166 -209 0 -1480 -249 -314 1311 0 0 -1150 427 0 0 -109 480 0 0 -216c627,-162 2228,-162 2856,0l0 216 479 0 0 109 427 0 0 1150 1311 0 -249 314 0 1480 -166 209 -965 0 -175 232 292 380 -555 0 0 100 -796 0 -1031 768z"/>
  <path class="fil2" d="M1751 3703l173 228 -192 250 373 0 49 -136 0 236c1132,0 2263,0 3395,0l0 -236 50 136 372 0 -192 -250 173 -228 -1059 0 340 83 -2763 0 340 -83 -1059 0z"/>
  <path class="fil3" d="M1855 1708l227 0 0 -739 -227 224 0 515zm458 0l140 0 0 -1028 -25 0 -202 199 0 246 87 77 0 506zm3535 0l-226 0 0 -739 226 224 0 515zm-458 0l-139 0 0 -1028 24 0 202 199 0 246 -87 77 0 506z"/>
  <polygon class="fil4" points="3852,4377 3945,4535 4123,4575 4002,4712 4020,4894 3852,4821 3684,4894 3701,4712 3580,4575 3758,4535 "/>
  <path class="fil3" d="M3162 857c-121,-59 -194,-136 -194,-219 0,-99 105,-189 273,-252 -127,74 -202,165 -202,262 0,75 45,146 123,209z"/>
  <path class="fil0" d="M4089 266c362,46 624,181 624,341 0,198 -399,358 -892,358 -132,0 -258,-12 -370,-33 84,11 174,17 267,17 493,0 893,-160 893,-358 0,-144 -214,-269 -522,-325zm671 197c79,57 124,124 124,194l0 680c-67,94 -157,175 -264,237l0 -644c-30,13 -61,25 -94,36l0 656c-39,17 -79,31 -121,43l0 -663c-32,8 -66,15 -100,21l0 666c-26,5 -53,9 -79,12l0 -664c-38,5 -77,10 -117,14l0 656c-13,0 -26,-1 -39,-1l0 -652c-63,5 -129,8 -196,8 -426,0 -791,-106 -939,-256 171,126 504,211 886,211 558,0 1010,-181 1010,-405 0,-53 -25,-103 -71,-149z"/>
  <path class="fil2" d="M1233 2917l-141 0 0 598 -378 0 0 -44 319 0 0 -599 200 0 0 45zm-141 -962l0 518 -59 0 0 -518 59 0zm600 0l0 1560 -378 0 0 -44 318 0 0 -1516 60 0zm798 1560l-461 0 -45 -44 487 0 249 -249 0 -1081 59 59 0 1026 -289 289zm918 -1197l-141 0 0 754 -59 0 0 -798 200 0 0 44zm399 587l60 0 0 321 -290 289 -440 0 -45 -44 467 0 248 -249 0 -317zm60 -705l0 349 -399 0 0 -44 339 0 0 -364 60 59zm902 525l-52 -52 178 -178 0 -540 59 0 0 585 -91 91 -86 86 -8 8zm185 200l0 590 -399 0 0 -44 340 0 0 -606 59 60zm-459 -8l-140 0 0 598 -378 0 0 -44 318 0 0 -599 200 0 0 45zm-140 -962l0 518 -60 0 0 -518 60 0zm1087 360l0 170 -59 0 0 -215 599 0 0 -315 60 0 0 360 -600 0zm600 250l0 340 -600 0 0 170 -59 0 0 -214 599 0 0 -296 60 0zm0 591l0 359 -710 0 -45 -44 695 0 0 -315 60 0zm769 -30l0 389 -341 0 0 -44 282 0 0 -390 318 -313 0 -813 59 0 0 858 -318 313zm-281 -1171l0 748 0 41 0 14 -60 -59 0 -744 60 0zm-4350 363l0 754 -60 0 0 -798 200 0 0 44 -140 0z"/>
  <path class="fil4" d="M1273 1915l319 0 0 1515 -319 0 0 -598 -281 0 0 598 -318 0 0 -1515 318 0 0 598 281 0 0 -598zm1181 1515l-93 0 -281 0 -94 0 -225 -225 0 -1065 225 -225 94 0 281 0 93 0 225 225 0 1065 -225 225zm-374 -1197l0 879 281 0 0 -879 -281 0zm1462 1197l-94 0 -281 0 -93 0 -225 -225 0 -1065 225 -225 93 0 281 0 94 0 225 225 0 324 -319 0 0 -231 -281 0 0 879 281 0 0 -231 319 0 0 324 -225 225zm994 -1515l318 0 0 563 -194 195 194 194 0 563 -318 0 0 -598 -281 0 0 598 -319 0 0 -1515 319 0 0 598 281 0 0 -598zm713 1515l-225 -225 0 -1065 225 -225 693 0 0 225 0 90 -600 0 0 3 0 292 600 0 0 295 -600 0 0 292 0 4 600 0 0 314 -693 0zm1462 -1515l318 0 0 836 -318 313 0 366 -281 0 0 -366 -318 -313 0 -836 318 0 0 801 140 138 141 -138 0 -801z"/>
  <path class="fil3" d="M738 2803l0 563 189 0 0 -563 -189 0zm600 0l0 563 189 0 0 -563 -189 0zm1090 563l187 -187 0 -376 -190 0 0 374 -410 0 0 -374 -189 0 0 376 187 187 415 0zm1087 0l187 -187 0 -233 -189 0 0 231 -410 0 0 -374 -189 0 0 376 187 187 414 0zm486 -563l0 563 189 0 0 -563 -189 0zm600 0l0 563 189 0 0 -472 -92 -91 -97 0zm675 563l601 0 0 -186 -599 0 0 -377 -189 0 0 376 187 187zm1439 -563l-145 142 -144 -142 -170 0 238 234 0 329 152 0 0 -329 239 -234 -170 0z"/>
  <path class="fil5" d="M2386 3891c-55,2 -96,37 -96,94 0,59 44,80 91,100 18,8 46,18 45,41 -1,21 -16,29 -34,35l0 22c55,-1 104,-39 104,-97 0,-35 -15,-70 -82,-96 -44,-17 -55,-28 -55,-47 0,-15 13,-26 27,-31l0 -21zm100 17c0,-3 0,-16 -11,-16 -10,0 -9,13 -19,13 -4,0 -29,-14 -53,-14l0 21c29,7 53,35 57,63 1,8 4,15 13,15 11,0 13,-10 13,-18l0 -64zm-196 257c0,2 0,16 11,16 10,0 8,-12 21,-12 13,0 20,13 53,14l0 -22c-33,-7 -54,-44 -59,-74 -2,-6 -7,-12 -14,-12 -11,0 -12,10 -12,18l0 72zm369 -227c0,-14 0,-16 13,-20 5,-1 8,-5 8,-10 0,-11 -12,-12 -14,-12l-106 0c-1,0 -14,1 -14,12 0,5 4,9 8,10 14,4 13,6 13,20l0 197c0,14 1,16 -13,20 -4,2 -8,5 -8,10 0,11 13,12 14,12l106 0c2,0 14,-1 14,-12 0,-5 -3,-8 -8,-10 -13,-4 -13,-6 -13,-20l0 -197zm136 197c0,14 0,16 -13,20 -5,2 -8,5 -8,10 0,11 12,12 13,12l107 0c1,0 14,-1 14,-12 0,-5 -4,-8 -9,-10 -13,-4 -12,-6 -12,-20l0 -239 -92 0 0 239zm162 -239l-54 0 0 22c20,14 25,39 29,59 1,8 3,18 13,18 11,0 12,-10 12,-11l0 -88zm-233 88c0,1 1,11 12,11 10,0 12,-10 13,-18 4,-20 9,-45 29,-59l0 -22 -54 0 0 88zm267 -76c0,5 3,9 8,10 13,4 13,6 13,20l0 197c0,14 0,16 -13,20 -5,2 -8,5 -8,10 0,11 12,12 14,12l99 0 0 -281 -99 0c-2,0 -14,1 -14,12zm130 10c33,5 52,24 62,54 1,6 3,10 10,10 11,0 11,-8 11,-10l0 -76 -83 0 0 22zm0 259l86 0 0 -75c0,-1 1,-13 -11,-13 -7,0 -9,6 -12,12 -10,30 -33,51 -63,54l0 22zm0 -132c15,4 23,19 26,33 2,6 4,12 12,12 12,0 10,-13 10,-16l0 -81c0,-3 2,-17 -10,-17 -8,0 -10,6 -12,13 -3,14 -11,29 -26,33l0 23zm296 73c-6,47 -30,32 -30,48 0,12 15,11 19,11l43 0c4,0 19,1 19,-11 0,-16 -24,-1 -30,-48l0 -65 -21 -62 0 0 0 127zm155 17c0,14 0,16 -13,20 -5,2 -8,5 -8,10 0,11 12,12 14,12l106 0c1,0 14,-1 14,-12 0,-5 -4,-8 -9,-10 -13,-4 -12,-6 -12,-20l0 -197c0,-14 -1,-16 12,-20 5,-1 9,-5 9,-10 0,-11 -13,-12 -14,-12l-99 0 0 239zm-187 -227c0,9 10,10 15,10 6,0 8,5 11,11 3,4 5,10 7,16l78 232 11 0 48 -159 0 -69 -1 0 -17 63 -1 0 -40 -116 -95 0c-5,0 -16,0 -16,12zm416 41l-1 0 -45 165c-7,26 -18,35 -25,39 -9,4 -15,4 -15,13 0,11 13,11 21,11l43 0c8,0 20,1 20,-10 0,-8 -6,-10 -12,-12 -12,-6 -18,-12 -12,-35l36 -129 -10 -42zm57 184c4,15 2,17 -8,23 -4,3 -7,5 -7,11 0,9 11,10 19,10l93 0c7,0 21,1 21,-10 0,-6 -4,-9 -10,-11 -10,-5 -10,-12 -13,-22l-56 -238 -83 0 -5 21 38 166 -46 0 -5 21 55 0 7 29zm182 -15c-6,47 -30,32 -30,48 0,12 16,11 20,11l42 0c5,0 20,1 20,-11 0,-16 -24,-1 -30,-48l0 -114 -21 -37 -1 0 0 151zm174 -100l21 37 1 0 0 -91c0,-53 31,-39 31,-56 0,-11 -13,-12 -17,-12l-51 0c-3,0 -16,1 -16,12 0,17 31,3 31,56l0 54zm-87 -122l-97 0c-8,1 -19,1 -19,12 0,8 5,10 11,12 13,4 14,10 20,20l138 237 56 0 0 -91 -109 -190zm254 53l-1 0 -45 165c-7,26 -18,35 -25,39 -9,4 -15,4 -15,13 0,11 13,11 21,11l43 0c8,0 20,1 20,-10 0,-8 -6,-10 -12,-12 -12,-6 -18,-12 -12,-35l36 -129 -10 -42zm57 184c4,15 2,17 -8,23 -4,3 -7,5 -7,11 0,9 11,10 19,10l93 0c7,0 21,1 21,-10 0,-6 -4,-9 -9,-11 -11,-5 -11,-12 -14,-22l-56 -238 -83 0 -5 21 38 166 -46 0 -5 21 55 0 7 29zm245 -186c0,-14 3,-29 18,-35l0 -21c-65,1 -116,65 -116,146 0,80 51,144 116,146l0 -22c-15,-5 -18,-21 -18,-35l0 -179zm35 -35c30,2 59,25 70,73 2,8 5,15 15,15 11,0 11,-12 11,-14l0 -83c0,-2 1,-12 -10,-12 -12,0 -11,14 -22,14 -4,0 -25,-11 -64,-14l0 21zm0 271c36,-1 70,-16 96,-40l0 -74c0,-2 -1,-7 7,-12 4,-2 7,-5 7,-11 0,-12 -11,-11 -13,-11l-90 0c-2,0 -15,0 -15,10 0,7 4,10 10,12 15,2 15,4 15,12l0 68c0,6 -1,19 -17,24l0 22zm152 -275c0,5 3,9 8,10 13,4 13,6 13,20l0 197c0,14 0,16 -13,20 -5,2 -8,5 -8,10 0,11 12,12 14,12l99 0 0 -281 -99 0c-2,0 -14,1 -14,12zm130 10c33,5 52,24 62,54 2,6 4,10 10,10 11,0 12,-8 12,-10l0 -76 -84 0 0 22zm0 259l86 0 0 -75c0,-1 1,-13 -11,-13 -6,0 -9,6 -11,12 -10,30 -34,51 -64,54l0 22zm0 -132c16,4 23,19 26,33 2,6 4,12 12,12 12,0 10,-13 10,-16l0 -81c0,-3 2,-17 -10,-17 -8,0 -10,6 -12,13 -3,14 -10,29 -26,33l0 23zm161 90c0,14 1,16 -13,20 -4,2 -8,5 -8,10 0,11 13,12 14,12l106 0c2,0 14,-1 14,-12 0,-5 -3,-8 -8,-10 -13,-4 -13,-6 -13,-20l0 -239 -99 0c-1,0 -14,1 -14,12 0,5 4,9 8,10 14,4 13,6 13,20l0 197zm109 -217c19,7 23,16 23,35l0 45c0,19 -3,31 -23,33l0 22c23,2 23,24 23,41l0 25c0,18 2,34 15,48 12,12 26,16 42,16 17,0 30,-3 43,-14 8,-6 21,-20 21,-31 0,-5 -6,-11 -11,-11 -9,0 -10,11 -16,11 -5,0 -4,-7 -4,-11l0 -33c-1,-40 -33,-49 -66,-54l0 -1c38,-9 67,-28 66,-71 -1,-29 -13,-49 -39,-62 -22,-10 -48,-10 -72,-10l-2 0 0 22z"/>
  <path class="fil0" d="M2787 4510l-862 0 0 -100 -657 0 369 -480 -100 -132 -964 0 -217 -274 0 -1480 -356 -447 1417 0 0 -1150 428 0 0 -110 479 0 0 -193 75 -19c203,-53 430,-77 639,-94 270,-22 543,-31 814,-31 270,0 543,9 813,31 209,17 436,41 639,94l75 19 0 193 479 0 0 110 428 0 0 1150 1417 0 -355 447 0 1480 -218 274 -964 0 -99 132 368 480 -657 0 0 100 -862 0 -1064 793 -1065 -793z"/>
  <path class="fil1" d="M3852 5179l-1032 -768 -795 0 0 -100 -555 0 292 -380 -175 -232 -966 0 -166 -209 0 -1480 -249 -314 1311 0 0 -1150 427 0 0 -109 480 0 0 -216c627,-162 2228,-162 2856,0l0 216 479 0 0 109 427 0 0 1150 1311 0 -249 314 0 1480 -166 209 -965 0 -175 232 292 380 -555 0 0 100 -796 0 -1031 768z"/>
  <path class="fil2" d="M1751 3703l173 228 -192 250 373 0 49 -136 0 236c1132,0 2263,0 3395,0l0 -236 50 136 372 0 -192 -250 173 -228 -1059 0 340 83 -2763 0 340 -83 -1059 0z"/>
  <path class="fil3" d="M1855 1708l227 0 0 -739 -227 224 0 515zm458 0l140 0 0 -1028 -25 0 -202 199 0 246 87 77 0 506zm3535 0l-226 0 0 -739 226 224 0 515zm-458 0l-139 0 0 -1028 24 0 202 199 0 246 -87 77 0 506z"/>
  <polygon class="fil4" points="3852,4377 3945,4535 4123,4575 4002,4712 4020,4894 3852,4821 3684,4894 3701,4712 3580,4575 3758,4535 "/>
  <path class="fil3" d="M3162 857c-121,-59 -194,-136 -194,-219 0,-99 105,-189 273,-252 -127,74 -202,165 -202,262 0,75 45,146 123,209z"/>
  <path class="fil0" d="M4089 266c362,46 624,181 624,341 0,198 -399,358 -892,358 -132,0 -258,-12 -370,-33 84,11 174,17 267,17 493,0 893,-160 893,-358 0,-144 -214,-269 -522,-325zm671 197c79,57 124,124 124,194l0 680c-67,94 -157,175 -264,237l0 -644c-30,13 -61,25 -94,36l0 656c-39,17 -79,31 -121,43l0 -663c-32,8 -66,15 -100,21l0 666c-26,5 -53,9 -79,12l0 -664c-38,5 -77,10 -117,14l0 656c-13,0 -26,-1 -39,-1l0 -652c-63,5 -129,8 -196,8 -426,0 -791,-106 -939,-256 171,126 504,211 886,211 558,0 1010,-181 1010,-405 0,-53 -25,-103 -71,-149z"/>
  <path class="fil2" d="M1233 2917l-141 0 0 598 -378 0 0 -44 319 0 0 -599 200 0 0 45zm-141 -962l0 518 -59 0 0 -518 59 0zm600 0l0 1560 -378 0 0 -44 318 0 0 -1516 60 0zm798 1560l-461 0 -45 -44 487 0 249 -249 0 -1081 59 59 0 1026 -289 289zm918 -1197l-141 0 0 754 -59 0 0 -798 200 0 0 44zm399 587l60 0 0 321 -290 289 -440 0 -45 -44 467 0 248 -249 0 -317zm60 -705l0 349 -399 0 0 -44 339 0 0 -364 60 59zm902 525l-52 -52 178 -178 0 -540 59 0 0 585 -91 91 -86 86 -8 8zm185 200l0 590 -399 0 0 -44 340 0 0 -606 59 60zm-459 -8l-140 0 0 598 -378 0 0 -44 318 0 0 -599 200 0 0 45zm-140 -962l0 518 -60 0 0 -518 60 0zm1087 360l0 170 -59 0 0 -215 599 0 0 -315 60 0 0 360 -600 0zm600 250l0 340 -600 0 0 170 -59 0 0 -214 599 0 0 -296 60 0zm0 591l0 359 -710 0 -45 -44 695 0 0 -315 60 0zm769 -30l0 389 -341 0 0 -44 282 0 0 -390 318 -313 0 -813 59 0 0 858 -318 313zm-281 -1171l0 748 0 41 0 14 -60 -59 0 -744 60 0zm-4350 363l0 754 -60 0 0 -798 200 0 0 44 -140 0z"/>
  <path class="fil4" d="M1273 1915l319 0 0 1515 -319 0 0 -598 -281 0 0 598 -318 0 0 -1515 318 0 0 598 281 0 0 -598zm1181 1515l-93 0 -281 0 -94 0 -225 -225 0 -1065 225 -225 94 0 281 0 93 0 225 225 0 1065 -225 225zm-374 -1197l0 879 281 0 0 -879 -281 0zm1462 1197l-94 0 -281 0 -93 0 -225 -225 0 -1065 225 -225 93 0 281 0 94 0 225 225 0 324 -319 0 0 -231 -281 0 0 879 281 0 0 -231 319 0 0 324 -225 225zm994 -1515l318 0 0 563 -194 195 194 194 0 563 -318 0 0 -598 -281 0 0 598 -319 0 0 -1515 319 0 0 598 281 0 0 -598zm713 1515l-225 -225 0 -1065 225 -225 693 0 0 225 0 90 -600 0 0 3 0 292 600 0 0 295 -600 0 0 292 0 4 600 0 0 314 -693 0zm1462 -1515l318 0 0 836 -318 313 0 366 -281 0 0 -366 -318 -313 0 -836 318 0 0 801 140 138 141 -138 0 -801z"/>
  <path class="fil3" d="M738 2803l0 563 189 0 0 -563 -189 0zm600 0l0 563 189 0 0 -563 -189 0zm1090 563l187 -187 0 -376 -190 0 0 374 -410 0 0 -374 -189 0 0 376 187 187 415 0zm1087 0l187 -187 0 -233 -189 0 0 231 -410 0 0 -374 -189 0 0 376 187 187 414 0zm486 -563l0 563 189 0 0 -563 -189 0zm600 0l0 563 189 0 0 -472 -92 -91 -97 0zm675 563l601 0 0 -186 -599 0 0 -377 -189 0 0 376 187 187zm1439 -563l-145 142 -144 -142 -170 0 238 234 0 329 152 0 0 -329 239 -234 -170 0z"/>
  <path class="fil5" d="M2386 3891c-55,2 -96,37 -96,94 0,59 44,80 91,100 18,8 46,18 45,41 -1,21 -16,29 -34,35l0 22c55,-1 104,-39 104,-97 0,-35 -15,-70 -82,-96 -44,-17 -55,-28 -55,-47 0,-15 13,-26 27,-31l0 -21zm100 17c0,-3 0,-16 -11,-16 -10,0 -9,13 -19,13 -4,0 -29,-14 -53,-14l0 21c29,7 53,35 57,63 1,8 4,15 13,15 11,0 13,-10 13,-18l0 -64zm-196 257c0,2 0,16 11,16 10,0 8,-12 21,-12 13,0 20,13 53,14l0 -22c-33,-7 -54,-44 -59,-74 -2,-6 -7,-12 -14,-12 -11,0 -12,10 -12,18l0 72zm369 -227c0,-14 0,-16 13,-20 5,-1 8,-5 8,-10 0,-11 -12,-12 -14,-12l-106 0c-1,0 -14,1 -14,12 0,5 4,9 8,10 14,4 13,6 13,20l0 197c0,14 1,16 -13,20 -4,2 -8,5 -8,10 0,11 13,12 14,12l106 0c2,0 14,-1 14,-12 0,-5 -3,-8 -8,-10 -13,-4 -13,-6 -13,-20l0 -197zm136 197c0,14 0,16 -13,20 -5,2 -8,5 -8,10 0,11 12,12 13,12l107 0c1,0 14,-1 14,-12 0,-5 -4,-8 -9,-10 -13,-4 -12,-6 -12,-20l0 -239 -92 0 0 239zm162 -239l-54 0 0 22c20,14 25,39 29,59 1,8 3,18 13,18 11,0 12,-10 12,-11l0 -88zm-233 88c0,1 1,11 12,11 10,0 12,-10 13,-18 4,-20 9,-45 29,-59l0 -22 -54 0 0 88zm267 -76c0,5 3,9 8,10 13,4 13,6 13,20l0 197c0,14 0,16 -13,20 -5,2 -8,5 -8,10 0,11 12,12 14,12l99 0 0 -281 -99 0c-2,0 -14,1 -14,12zm130 10c33,5 52,24 62,54 1,6 3,10 10,10 11,0 11,-8 11,-10l0 -76 -83 0 0 22zm0 259l86 0 0 -75c0,-1 1,-13 -11,-13 -7,0 -9,6 -12,12 -10,30 -33,51 -63,54l0 22zm0 -132c15,4 23,19 26,33 2,6 4,12 12,12 12,0 10,-13 10,-16l0 -81c0,-3 2,-17 -10,-17 -8,0 -10,6 -12,13 -3,14 -11,29 -26,33l0 23zm296 73c-6,47 -30,32 -30,48 0,12 15,11 19,11l43 0c4,0 19,1 19,-11 0,-16 -24,-1 -30,-48l0 -65 -21 -62 0 0 0 127zm155 17c0,14 0,16 -13,20 -5,2 -8,5 -8,10 0,11 12,12 14,12l106 0c1,0 14,-1 14,-12 0,-5 -4,-8 -9,-10 -13,-4 -12,-6 -12,-20l0 -197c0,-14 -1,-16 12,-20 5,-1 9,-5 9,-10 0,-11 -13,-12 -14,-12l-99 0 0 239zm-187 -227c0,9 10,10 15,10 6,0 8,5 11,11 3,4 5,10 7,16l78 232 11 0 48 -159 0 -69 -1 0 -17 63 -1 0 -40 -116 -95 0c-5,0 -16,0 -16,12zm416 41l-1 0 -45 165c-7,26 -18,35 -25,39 -9,4 -15,4 -15,13 0,11 13,11 21,11l43 0c8,0 20,1 20,-10 0,-8 -6,-10 -12,-12 -12,-6 -18,-12 -12,-35l36 -129 -10 -42zm57 184c4,15 2,17 -8,23 -4,3 -7,5 -7,11 0,9 11,10 19,10l93 0c7,0 21,1 21,-10 0,-6 -4,-9 -10,-11 -10,-5 -10,-12 -13,-22l-56 -238 -83 0 -5 21 38 166 -46 0 -5 21 55 0 7 29zm182 -15c-6,47 -30,32 -30,48 0,12 16,11 20,11l42 0c5,0 20,1 20,-11 0,-16 -24,-1 -30,-48l0 -114 -21 -37 -1 0 0 151zm174 -100l21 37 1 0 0 -91c0,-53 31,-39 31,-56 0,-11 -13,-12 -17,-12l-51 0c-3,0 -16,1 -16,12 0,17 31,3 31,56l0 54zm-87 -122l-97 0c-8,1 -19,1 -19,12 0,8 5,10 11,12 13,4 14,10 20,20l138 237 56 0 0 -91 -109 -190zm254 53l-1 0 -45 165c-7,26 -18,35 -25,39 -9,4 -15,4 -15,13 0,11 13,11 21,11l43 0c8,0 20,1 20,-10 0,-8 -6,-10 -12,-12 -12,-6 -18,-12 -12,-35l36 -129 -10 -42zm57 184c4,15 2,17 -8,23 -4,3 -7,5 -7,11 0,9 11,10 19,10l93 0c7,0 21,1 21,-10 0,-6 -4,-9 -9,-11 -11,-5 -11,-12 -14,-22l-56 -238 -83 0 -5 21 38 166 -46 0 -5 21 55 0 7 29zm245 -186c0,-14 3,-29 18,-35l0 -21c-65,1 -116,65 -116,146 0,80 51,144 116,146l0 -22c-15,-5 -18,-21 -18,-35l0 -179zm35 -35c30,2 59,25 70,73 2,8 5,15 15,15 11,0 11,-12 11,-14l0 -83c0,-2 1,-12 -10,-12 -12,0 -11,14 -22,14 -4,0 -25,-11 -64,-14l0 21zm0 271c36,-1 70,-16 96,-40l0 -74c0,-2 -1,-7 7,-12 4,-2 7,-5 7,-11 0,-12 -11,-11 -13,-11l-90 0c-2,0 -15,0 -15,10 0,7 4,10 10,12 15,2 15,4 15,12l0 68c0,6 -1,19 -17,24l0 22zm152 -275c0,5 3,9 8,10 13,4 13,6 13,20l0 197c0,14 0,16 -13,20 -5,2 -8,5 -8,10 0,11 12,12 14,12l99 0 0 -281 -99 0c-2,0 -14,1 -14,12zm130 10c33,5 52,24 62,54 2,6 4,10 10,10 11,0 12,-8 12,-10l0 -76 -84 0 0 22zm0 259l86 0 0 -75c0,-1 1,-13 -11,-13 -6,0 -9,6 -11,12 -10,30 -34,51 -64,54l0 22zm0 -132c16,4 23,19 26,33 2,6 4,12 12,12 12,0 10,-13 10,-16l0 -81c0,-3 2,-17 -10,-17 -8,0 -10,6 -12,13 -3,14 -10,29 -26,33l0 23zm161 90c0,14 1,16 -13,20 -4,2 -8,5 -8,10 0,11 13,12 14,12l106 0c2,0 14,-1 14,-12 0,-5 -3,-8 -8,-10 -13,-4 -13,-6 -13,-20l0 -239 -99 0c-1,0 -14,1 -14,12 0,5 4,9 8,10 14,4 13,6 13,20l0 197zm109 -217c19,7 23,16 23,35l0 45c0,19 -3,31 -23,33l0 22c23,2 23,24 23,41l0 25c0,18 2,34 15,48 12,12 26,16 42,16 17,0 30,-3 43,-14 8,-6 21,-20 21,-31 0,-5 -6,-11 -11,-11 -9,0 -10,11 -16,11 -5,0 -4,-7 -4,-11l0 -33c-1,-40 -33,-49 -66,-54l0 -1c38,-9 67,-28 66,-71 -1,-29 -13,-49 -39,-62 -22,-10 -48,-10 -72,-10l-2 0 0 22z"/>
 </g>
</svg>
