<?xml version="1.0" encoding="UTF-8"?>
<!DOCTYPE svg PUBLIC "-//W3C//DTD SVG 1.1//EN" "http://www.w3.org/Graphics/SVG/1.1/DTD/svg11.dtd">
<!-- Creator: CorelDRAW X7 -->
<svg xmlns="http://www.w3.org/2000/svg" xml:space="preserve" width="46.9471mm" height="17.751mm" version="1.1" style="shape-rendering:geometricPrecision; text-rendering:geometricPrecision; image-rendering:optimizeQuality; fill-rule:evenodd; clip-rule:evenodd"
viewBox="0 0 3561 1346"
 xmlns:xlink="http://www.w3.org/1999/xlink">
 <defs>
  <style type="text/css">
   <![CDATA[
    .fil5 {fill:black}
    .fil1 {fill:black}
    .fil4 {fill:#CCCCCC}
    .fil2 {fill:#FFC125}
    .fil0 {fill:#FFC125}
    .fil3 {fill:white}
   ]]>
  </style>
 </defs>
 <g id="Layer_x0020_1">
  <metadata id="CorelCorpID_0Corel-Layer"/>
  <g id="_2318622939728">
   <polygon class="fil0" points="890,1301 890,1301 586,1301 757,1079 711,1018 265,1018 164,891 164,207 0,0 655,0 2906,0 3561,0 3397,207 3397,891 3296,1018 2851,1018 2805,1079 2975,1301 2671,1301 2671,1301 2625,1301 2625,1346 936,1346 936,1301 "/>
   <path class="fil1" d="M1304 1301l-322 0 0 -46c-101,0 -202,0 -303,0l135 -176 -81 -107 -446 0 -77 -97 0 -684 -115 -145c1124,0 2247,0 3371,0l-115 145 0 684 -77 97 -446 0 -81 107 135 176c-101,0 -202,0 -303,0l0 46 -322 0 -953 0z"/>
   <path class="fil2" d="M810 974l79 105 -88 116 172 0 23 -63 0 109c523,0 1046,0 1569,0l0 -109 23 63 172 0 -88 -116 79 -105 -489 0 157 38 -1277 0 157 -38 -489 0z"/>
   <path class="fil2" d="M570 610l-65 0 0 277 -175 0 0 -21 147 0 0 -276 93 0 0 20zm-65 -444l0 239 -28 0 0 -239 28 0zm277 0l0 721 -175 0 0 -21 147 0 0 -700 28 0zm369 721l-213 0 -21 -21 225 0 115 -115 0 -500 28 28 0 474 -134 134zm424 -553l-65 0 0 348 -27 0 0 -369 92 0 0 21zm185 271l28 0 0 148 -134 134 -204 0 -21 -21 216 0 115 -115 0 -146zm28 -326l0 161 -185 0 0 -20 157 0 0 -169 28 28zm417 242l-24 -24 82 -82 0 -249 27 0 0 270 -42 42 -40 40 -3 3zm85 93l0 273 -184 0 0 -21 157 0 0 -280 27 28zm-212 -4l-65 0 0 277 -175 0 0 -21 148 0 0 -276 92 0 0 20zm-65 -444l0 239 -27 0 0 -239 27 0zm503 166l0 78 -28 0 0 -99 278 0 0 -145 27 0 0 166 -277 0zm277 116l0 157 -277 0 0 78 -28 0 0 -99 278 0 0 -136 27 0zm0 273l0 166 -328 0 -21 -21 322 0 0 -145 27 0zm356 -14l0 180 -158 0 0 -21 130 0 0 -180 147 -144 0 -376 28 0 0 396 -147 145zm-130 -541l0 345 0 19 0 7 -28 -27 0 -344 28 0zm-2011 168l0 348 -28 0 0 -369 93 0 0 21 -65 0z"/>
   <path class="fil3" d="M589 147l147 0 0 701 -147 0 0 -277 -130 0 0 277 -148 0 0 -701 148 0 0 277 130 0 0 -277zm546 701l-44 0 -130 0 -43 0 -104 -104 0 -493 104 -104 43 0 130 0 44 0 104 104 0 493 -104 104zm-174 -554l0 406 130 0 0 -406 -130 0zm676 554l-43 0 -130 0 -43 0 -104 -104 0 -493 104 -104 43 0 130 0 43 0 104 104 0 150 -147 0 0 -107 -130 0 0 406 130 0 0 -106 147 0 0 150 -104 104zm460 -701l147 0 0 261 -90 89 90 90 0 261 -147 0 0 -277 -130 0 0 277 -147 0 0 -701 147 0 0 277 130 0 0 -277zm330 701l-104 -104 0 -493 104 -104 320 0 0 104 0 42 -277 0 0 1 0 135 277 0 0 137 -277 0 0 134 0 2 277 0 0 146 -320 0zm675 -701l148 0 0 387 -148 144 0 170 -130 0 0 -170 -147 -144 0 -387 147 0 0 370 65 64 65 -64 0 -370z"/>
   <path class="fil4" d="M341 557l0 261 88 0 0 -261 -88 0zm278 0l0 261 87 0 0 -261 -87 0zm503 261l87 -87 0 -174 -88 0 0 173 -189 0 0 -173 -88 0 0 174 87 87 191 0zm503 0l86 -87 0 -107 -87 0 0 106 -190 0 0 -173 -87 0 0 174 86 87 192 0zm225 -261l0 261 87 0 0 -261 -87 0zm277 0l0 261 87 0 0 -218 -42 -43 -45 0zm312 261l278 0 0 -86 -277 0 0 -175 -88 0 0 174 87 87zm665 -261l-67 66 -66 -66 -79 0 110 109 0 152 71 0 0 -152 110 -109 -79 0z"/>
   <path class="fil5" d="M1103 1060c-25,1 -44,18 -44,44 0,27 20,37 42,46 8,4 21,9 21,19 -1,10 -8,14 -16,16l0 10c25,0 48,-18 48,-44 0,-16 -7,-33 -38,-45 -21,-8 -25,-13 -25,-21 0,-7 6,-12 12,-14l0 -11zm46 8c0,-1 0,-7 -5,-7 -4,0 -4,6 -9,6 -1,0 -13,-6 -24,-7l0 11c13,2 24,16 26,29 1,3 2,6 6,6 5,0 6,-4 6,-8l0 -30zm-90 120c0,0 0,7 5,7 4,0 4,-6 9,-6 7,0 10,6 25,6l0 -10c-15,-3 -25,-20 -28,-34 0,-3 -2,-5 -6,-5 -5,0 -5,4 -5,8l0 34zm170 -105c0,-7 0,-8 6,-10 3,-1 4,-2 4,-5 0,-5 -6,-5 -6,-5l-49 0c-1,0 -7,0 -7,5 0,3 2,4 4,5 6,2 6,3 6,10l0 90c0,7 0,8 -6,10 -2,1 -4,2 -4,5 0,5 6,5 7,5l49 0c0,0 6,0 6,-5 0,-3 -1,-4 -4,-5 -6,-2 -6,-3 -6,-10l0 -90zm63 90c0,7 0,8 -6,10 -2,1 -4,2 -4,5 0,5 6,5 7,5l49 0c0,0 6,0 6,-5 0,-3 -1,-4 -4,-5 -6,-2 -6,-3 -6,-10l0 -110 -42 0 0 110zm75 -110l-25 0 0 10c9,7 12,18 13,27 1,4 2,9 7,9 5,0 5,-5 5,-5l0 -41zm-108 41c0,0 1,5 6,5 5,0 6,-5 6,-9 2,-9 4,-20 13,-27l0 -10 -25 0 0 41zm124 -36c0,3 1,4 3,5 6,2 6,3 6,10l0 90c0,7 0,8 -6,10 -2,1 -3,2 -3,5 0,5 5,5 6,5l46 0 0 -130 -46 0c-1,0 -6,0 -6,5zm60 5c15,3 24,11 28,25 1,3 2,4 5,4 5,0 5,-3 5,-4l0 -35 -38 0 0 10zm0 120l40 0 0 -35c0,-1 0,-6 -5,-6 -4,0 -5,3 -6,6 -5,14 -15,23 -29,25l0 10zm0 -61c7,2 10,8 12,15 1,3 2,6 5,6 6,0 5,-6 5,-8l0 -37c0,-2 1,-8 -5,-8 -3,0 -4,3 -5,6 -2,6 -5,13 -12,15l0 11zm137 33c-3,22 -14,15 -14,23 0,5 7,5 9,5l19 0c2,0 9,0 9,-5 0,-8 -11,-1 -13,-23l0 -29 -10 -29 0 0 0 58zm71 8c0,7 0,8 -6,10 -2,1 -4,2 -4,5 0,5 6,5 7,5l49 0c1,0 6,0 6,-5 0,-3 -1,-4 -3,-5 -6,-2 -6,-3 -6,-10l0 -90c0,-7 0,-8 6,-10 2,-1 3,-2 3,-5 0,-5 -5,-5 -6,-5l-46 0 0 110zm-86 -105c0,5 5,5 7,5 3,0 3,2 5,5 1,2 2,5 3,7l36 108 5 0 22 -74 0 -31 0 0 -8 28 0 0 -19 -53 -44 0c-2,0 -7,0 -7,5zm192 19l0 0 -21 77c-4,12 -8,16 -12,18 -4,2 -7,2 -7,6 0,5 7,5 10,5l20 0c4,0 9,0 9,-5 0,-3 -2,-4 -5,-6 -6,-2 -8,-5 -6,-16l17 -59 -5 -20zm27 86c1,6 1,8 -4,10 -2,1 -3,2 -3,5 0,5 5,5 8,5l43 0c4,0 10,0 10,-5 0,-3 -2,-4 -4,-5 -5,-2 -5,-5 -6,-10l-26 -110 -39 0 -2 9 17 77 -21 0 -2 10 25 0 4 14zm84 -8c-3,22 -14,15 -14,23 0,5 7,5 9,5l20 0c2,0 9,0 9,-5 0,-8 -11,-1 -14,-23l0 -52 -10 -17 0 0 0 69zm80 -46l10 18 0 0 0 -43c0,-24 14,-18 14,-26 0,-5 -5,-5 -7,-5l-24 0c-1,0 -7,0 -7,5 0,8 14,2 14,26l0 25zm-40 -56l-45 0c-4,0 -9,0 -9,5 0,4 2,5 5,6 6,2 7,5 10,9l63 110 26 0 0 -42 -50 -88zm117 24l0 0 -21 77c-3,12 -8,16 -12,18 -4,2 -6,2 -6,6 0,5 6,5 9,5l20 0c4,0 9,0 9,-5 0,-3 -2,-4 -5,-6 -6,-2 -8,-5 -6,-16l17 -59 -5 -20zm27 86c1,6 1,8 -4,10 -2,1 -3,2 -3,5 0,5 5,5 8,5l44 0c3,0 9,0 9,-5 0,-3 -2,-4 -4,-5 -5,-2 -5,-5 -6,-10l-26 -110 -39 0 -2 9 18 77 -22 0 -2 10 25 0 4 14zm113 -87c0,-6 1,-13 8,-15l0 -11c-30,1 -53,31 -53,68 0,37 23,67 53,67l0 -10c-7,-2 -8,-9 -8,-16l0 -83zm16 -15c14,0 27,11 33,33 1,4 2,7 6,7 6,0 6,-5 6,-6l0 -39c0,-1 0,-6 -5,-6 -6,0 -5,7 -10,7 -2,0 -12,-5 -30,-7l0 11zm0 124c16,0 32,-7 45,-18l0 -34c0,-1 -1,-3 3,-5 1,-2 3,-3 3,-6 0,-5 -5,-5 -6,-5l-42 0c-1,0 -7,0 -7,5 0,3 2,4 5,5 7,1 7,2 7,6l0 31c0,3 0,9 -8,11l0 10zm70 -127c0,3 2,4 4,5 6,2 6,3 6,10l0 90c0,7 0,8 -6,10 -2,1 -4,2 -4,5 0,5 6,5 7,5l46 0 0 -130 -46 0c-1,0 -7,0 -7,5zm60 5c16,3 25,11 29,25 1,3 2,4 5,4 5,0 5,-3 5,-4l0 -35 -39 0 0 10zm0 120l40 0 0 -35c0,-1 1,-6 -5,-6 -3,0 -4,3 -5,6 -5,14 -16,23 -30,25l0 10zm0 -61c8,2 11,8 13,15 0,3 1,6 5,6 6,0 5,-6 5,-8l0 -37c0,-2 1,-8 -5,-8 -4,0 -5,3 -5,6 -2,6 -5,13 -13,15l0 11zm75 41c0,7 0,8 -6,10 -2,1 -4,2 -4,5 0,5 6,5 7,5l49 0c0,0 6,0 6,-5 0,-3 -1,-4 -4,-5 -6,-2 -6,-3 -6,-10l0 -110 -45 0c-1,0 -7,0 -7,5 0,3 2,4 4,5 6,2 6,3 6,10l0 90zm50 -100c9,3 11,8 11,16l0 21c0,9 -1,15 -11,15l0 11c11,1 11,10 11,18l0 12c0,8 1,16 7,22 5,6 12,7 19,7 8,0 14,-1 20,-6 4,-3 10,-9 10,-14 0,-3 -3,-5 -5,-5 -5,0 -5,5 -8,5 -2,0 -2,-4 -2,-5l0 -15c0,-19 -15,-23 -30,-26l0 0c18,-4 31,-13 30,-33 0,-13 -6,-23 -17,-28 -11,-5 -23,-5 -34,-5l-1 0 0 10z"/>
  </g>
 </g>
</svg>
